<svg t="1649899139571" class="icon" viewBox="0 0 1024 1024" version="1.1" xmlns="http://www.w3.org/2000/svg" p-id="26178" width="200" height="200"><path d="M746.666667 896a149.333333 149.333333 0 1 1 0-298.666667 149.333333 149.333333 0 0 1 0 298.666667z m0-85.333333a64 64 0 1 0 0-128 64 64 0 0 0 0 128z m-469.333334-384a149.333333 149.333333 0 1 1 0-298.666667 149.333333 149.333333 0 0 1 0 298.666667z m0-85.333334a64 64 0 1 0 0-128 64 64 0 0 0 0 128z m536.362667-191.36l60.330667 60.330667L210.346667 874.026667l-60.330667-60.330667L813.653333 149.973333z" p-id="26179"></path></svg>