<svg t="1649899337122" class="icon" viewBox="0 0 1024 1024" version="1.1" xmlns="http://www.w3.org/2000/svg" p-id="26328" width="200" height="200"><path d="M512 597.333333v85.333334a256 256 0 0 0-256 256H170.666667a341.333333 341.333333 0 0 1 341.333333-341.333334z m0-42.666666c-141.44 0-256-114.56-256-256s114.56-256 256-256 256 114.56 256 256-114.56 256-256 256z m0-85.333334c94.293333 0 170.666667-76.373333 170.666667-170.666666s-76.373333-170.666667-170.666667-170.666667-170.666667 76.373333-170.666667 170.666667 76.373333 170.666667 170.666667 170.666666z m376.661333 429.696L768 1024l-120.661333-124.970667c-66.688-69.034667-66.688-180.906667 0-249.941333a166.570667 166.570667 0 0 1 241.322666 0c66.688 69.034667 66.688 180.906667 0 249.941333z m-61.354666-59.306666c34.688-35.925333 34.688-95.402667 0-131.328a81.237333 81.237333 0 0 0-118.613334 0c-34.688 35.925333-34.688 95.402667 0 131.370666L768 901.12l59.306667-61.44z" p-id="26329"></path></svg>